<mxfile host="app.diagrams.net" agent="Mozilla/5.0 (Windows NT 10.0; Win64; x64) AppleWebKit/537.36 (KHTML, like Gecko) Chrome/126.0.0.0 YaBrowser/24.7.0.0 Safari/537.36" version="24.7.16">
  <diagram name="Страница — 1" id="oJfJ-4npNXyi--9cBJS4">
    <mxGraphModel dx="1686" dy="821" grid="1" gridSize="10" guides="1" tooltips="1" connect="1" arrows="1" fold="1" page="1" pageScale="1" pageWidth="827" pageHeight="1169" math="0" shadow="0">
      <root>
        <mxCell id="0" />
        <mxCell id="1" parent="0" />
        <mxCell id="7xTzRpvflf75920WKzXN-4" style="edgeStyle=orthogonalEdgeStyle;rounded=0;orthogonalLoop=1;jettySize=auto;html=1;entryX=0.5;entryY=0;entryDx=0;entryDy=0;" edge="1" parent="1" source="xODFXK91Cq6a1aJsKwYn-1">
          <mxGeometry relative="1" as="geometry">
            <mxPoint x="414" y="160" as="targetPoint" />
          </mxGeometry>
        </mxCell>
        <mxCell id="xODFXK91Cq6a1aJsKwYn-1" value="Начало" style="ellipse;whiteSpace=wrap;html=1;fontSize=14;fontFamily=Times New Roman;" parent="1" vertex="1">
          <mxGeometry x="354" y="40" width="120" height="80" as="geometry" />
        </mxCell>
        <mxCell id="7xTzRpvflf75920WKzXN-6" style="edgeStyle=orthogonalEdgeStyle;rounded=0;orthogonalLoop=1;jettySize=auto;html=1;exitX=0.5;exitY=1;exitDx=0;exitDy=0;entryX=0.5;entryY=0;entryDx=0;entryDy=0;" edge="1" parent="1">
          <mxGeometry relative="1" as="geometry">
            <mxPoint x="414" y="220" as="sourcePoint" />
            <mxPoint x="414" y="260" as="targetPoint" />
          </mxGeometry>
        </mxCell>
        <mxCell id="7xTzRpvflf75920WKzXN-8" style="edgeStyle=orthogonalEdgeStyle;rounded=0;orthogonalLoop=1;jettySize=auto;html=1;exitX=0.5;exitY=1;exitDx=0;exitDy=0;entryX=0.5;entryY=0;entryDx=0;entryDy=0;" edge="1" parent="1">
          <mxGeometry relative="1" as="geometry">
            <mxPoint x="414" y="320" as="sourcePoint" />
            <mxPoint x="414" y="360" as="targetPoint" />
          </mxGeometry>
        </mxCell>
        <mxCell id="7xTzRpvflf75920WKzXN-10" style="edgeStyle=orthogonalEdgeStyle;rounded=0;orthogonalLoop=1;jettySize=auto;html=1;exitX=0.5;exitY=1;exitDx=0;exitDy=0;entryX=0.5;entryY=0;entryDx=0;entryDy=0;" edge="1" parent="1">
          <mxGeometry relative="1" as="geometry">
            <mxPoint x="414" y="420" as="sourcePoint" />
            <mxPoint x="414" y="460" as="targetPoint" />
          </mxGeometry>
        </mxCell>
        <mxCell id="7xTzRpvflf75920WKzXN-12" style="edgeStyle=orthogonalEdgeStyle;rounded=0;orthogonalLoop=1;jettySize=auto;html=1;exitX=0.5;exitY=1;exitDx=0;exitDy=0;" edge="1" parent="1">
          <mxGeometry relative="1" as="geometry">
            <mxPoint x="414" y="520" as="sourcePoint" />
            <mxPoint x="414" y="560" as="targetPoint" />
          </mxGeometry>
        </mxCell>
        <mxCell id="7xTzRpvflf75920WKzXN-13" value="Подход к КПП" style="shape=process;whiteSpace=wrap;html=1;backgroundOutline=1;fontSize=14;fontFamily=Times New Roman;" vertex="1" parent="1">
          <mxGeometry x="354" y="160" width="120" height="60" as="geometry" />
        </mxCell>
        <mxCell id="7xTzRpvflf75920WKzXN-14" value="Вход в зону действия камеры" style="shape=process;whiteSpace=wrap;html=1;backgroundOutline=1;fontSize=14;fontFamily=Times New Roman;" vertex="1" parent="1">
          <mxGeometry x="354" y="260" width="120" height="60" as="geometry" />
        </mxCell>
        <mxCell id="7xTzRpvflf75920WKzXN-15" value="Ожидание распознавания" style="shape=process;whiteSpace=wrap;html=1;backgroundOutline=1;fontSize=14;fontFamily=Times New Roman;" vertex="1" parent="1">
          <mxGeometry x="354" y="360" width="120" height="60" as="geometry" />
        </mxCell>
        <mxCell id="7xTzRpvflf75920WKzXN-16" value="Сканирование лица системой" style="shape=process;whiteSpace=wrap;html=1;backgroundOutline=1;fontSize=14;fontFamily=Times New Roman;" vertex="1" parent="1">
          <mxGeometry x="354" y="460" width="120" height="60" as="geometry" />
        </mxCell>
        <mxCell id="7xTzRpvflf75920WKzXN-19" style="edgeStyle=orthogonalEdgeStyle;rounded=0;orthogonalLoop=1;jettySize=auto;html=1;exitX=0.5;exitY=1;exitDx=0;exitDy=0;entryX=0.5;entryY=0;entryDx=0;entryDy=0;" edge="1" parent="1" source="7xTzRpvflf75920WKzXN-17" target="7xTzRpvflf75920WKzXN-18">
          <mxGeometry relative="1" as="geometry" />
        </mxCell>
        <mxCell id="7xTzRpvflf75920WKzXN-17" value="Сравнение с базой данных" style="shape=process;whiteSpace=wrap;html=1;backgroundOutline=1;fontSize=14;fontFamily=Times New Roman;" vertex="1" parent="1">
          <mxGeometry x="354" y="560" width="120" height="60" as="geometry" />
        </mxCell>
        <mxCell id="7xTzRpvflf75920WKzXN-20" style="edgeStyle=orthogonalEdgeStyle;rounded=0;orthogonalLoop=1;jettySize=auto;html=1;exitX=0.5;exitY=1;exitDx=0;exitDy=0;entryX=0.5;entryY=0;entryDx=0;entryDy=0;" edge="1" parent="1" source="7xTzRpvflf75920WKzXN-18" target="7xTzRpvflf75920WKzXN-21">
          <mxGeometry relative="1" as="geometry">
            <mxPoint x="414" y="780" as="targetPoint" />
          </mxGeometry>
        </mxCell>
        <mxCell id="7xTzRpvflf75920WKzXN-29" style="edgeStyle=orthogonalEdgeStyle;rounded=0;orthogonalLoop=1;jettySize=auto;html=1;entryX=0.5;entryY=0;entryDx=0;entryDy=0;" edge="1" parent="1" source="7xTzRpvflf75920WKzXN-18" target="7xTzRpvflf75920WKzXN-23">
          <mxGeometry relative="1" as="geometry">
            <mxPoint x="640" y="715" as="targetPoint" />
          </mxGeometry>
        </mxCell>
        <mxCell id="7xTzRpvflf75920WKzXN-18" value="Лицо распознано?" style="rhombus;whiteSpace=wrap;html=1;fontSize=14;fontFamily=Times New Roman;" vertex="1" parent="1">
          <mxGeometry x="356" y="660" width="116" height="110" as="geometry" />
        </mxCell>
        <mxCell id="7xTzRpvflf75920WKzXN-49" value="" style="edgeStyle=orthogonalEdgeStyle;rounded=0;orthogonalLoop=1;jettySize=auto;html=1;" edge="1" parent="1" source="7xTzRpvflf75920WKzXN-21" target="7xTzRpvflf75920WKzXN-37">
          <mxGeometry relative="1" as="geometry" />
        </mxCell>
        <mxCell id="7xTzRpvflf75920WKzXN-21" value="Турникет открывается" style="shape=process;whiteSpace=wrap;html=1;backgroundOutline=1;fontSize=14;fontFamily=Times New Roman;" vertex="1" parent="1">
          <mxGeometry x="354" y="810" width="120" height="60" as="geometry" />
        </mxCell>
        <mxCell id="7xTzRpvflf75920WKzXN-22" value="+" style="text;html=1;align=center;verticalAlign=middle;resizable=0;points=[];autosize=1;strokeColor=none;fillColor=none;" vertex="1" parent="1">
          <mxGeometry x="410" y="770" width="30" height="30" as="geometry" />
        </mxCell>
        <mxCell id="7xTzRpvflf75920WKzXN-48" value="" style="edgeStyle=orthogonalEdgeStyle;rounded=0;orthogonalLoop=1;jettySize=auto;html=1;" edge="1" parent="1" source="7xTzRpvflf75920WKzXN-23" target="7xTzRpvflf75920WKzXN-35">
          <mxGeometry relative="1" as="geometry" />
        </mxCell>
        <mxCell id="7xTzRpvflf75920WKzXN-23" value="Проверка данных в ручную" style="shape=process;whiteSpace=wrap;html=1;backgroundOutline=1;fontSize=14;fontFamily=Times New Roman;" vertex="1" parent="1">
          <mxGeometry x="580" y="740" width="120" height="60" as="geometry" />
        </mxCell>
        <mxCell id="7xTzRpvflf75920WKzXN-32" value="-" style="text;html=1;align=center;verticalAlign=middle;resizable=0;points=[];autosize=1;strokeColor=none;fillColor=none;" vertex="1" parent="1">
          <mxGeometry x="474" y="688" width="30" height="30" as="geometry" />
        </mxCell>
        <mxCell id="7xTzRpvflf75920WKzXN-36" style="edgeStyle=orthogonalEdgeStyle;rounded=0;orthogonalLoop=1;jettySize=auto;html=1;exitX=0.5;exitY=1;exitDx=0;exitDy=0;entryX=0.5;entryY=0;entryDx=0;entryDy=0;" edge="1" parent="1" source="7xTzRpvflf75920WKzXN-35" target="7xTzRpvflf75920WKzXN-38">
          <mxGeometry relative="1" as="geometry">
            <mxPoint x="640" y="1010" as="targetPoint" />
          </mxGeometry>
        </mxCell>
        <mxCell id="7xTzRpvflf75920WKzXN-51" value="" style="edgeStyle=orthogonalEdgeStyle;rounded=0;orthogonalLoop=1;jettySize=auto;html=1;" edge="1" parent="1" source="7xTzRpvflf75920WKzXN-35" target="7xTzRpvflf75920WKzXN-50">
          <mxGeometry relative="1" as="geometry" />
        </mxCell>
        <mxCell id="7xTzRpvflf75920WKzXN-35" value="Решение охраны" style="rhombus;whiteSpace=wrap;html=1;fontSize=14;fontFamily=Times New Roman;" vertex="1" parent="1">
          <mxGeometry x="575" y="840" width="130" height="110" as="geometry" />
        </mxCell>
        <mxCell id="7xTzRpvflf75920WKzXN-37" value="Конец" style="ellipse;whiteSpace=wrap;html=1;fontSize=14;fontFamily=Times New Roman;" vertex="1" parent="1">
          <mxGeometry x="354" y="970" width="120" height="80" as="geometry" />
        </mxCell>
        <mxCell id="7xTzRpvflf75920WKzXN-38" value="1" style="ellipse;whiteSpace=wrap;html=1;aspect=fixed;fontSize=14;fontFamily=Times New Roman;" vertex="1" parent="1">
          <mxGeometry x="620" y="990" width="40" height="40" as="geometry" />
        </mxCell>
        <mxCell id="7xTzRpvflf75920WKzXN-39" value="1" style="ellipse;whiteSpace=wrap;html=1;aspect=fixed;fontSize=14;fontFamily=Times New Roman;" vertex="1" parent="1">
          <mxGeometry x="321" y="760" width="40" height="40" as="geometry" />
        </mxCell>
        <mxCell id="7xTzRpvflf75920WKzXN-45" style="edgeStyle=orthogonalEdgeStyle;rounded=0;orthogonalLoop=1;jettySize=auto;html=1;entryX=0.12;entryY=0.32;entryDx=0;entryDy=0;entryPerimeter=0;" edge="1" parent="1" source="7xTzRpvflf75920WKzXN-39" target="7xTzRpvflf75920WKzXN-22">
          <mxGeometry relative="1" as="geometry" />
        </mxCell>
        <mxCell id="7xTzRpvflf75920WKzXN-46" value="+" style="text;html=1;align=center;verticalAlign=middle;resizable=0;points=[];autosize=1;strokeColor=none;fillColor=none;" vertex="1" parent="1">
          <mxGeometry x="610" y="950" width="30" height="30" as="geometry" />
        </mxCell>
        <mxCell id="7xTzRpvflf75920WKzXN-50" value="2" style="ellipse;whiteSpace=wrap;html=1;aspect=fixed;fontSize=14;fontFamily=Times New Roman;" vertex="1" parent="1">
          <mxGeometry x="740" y="875" width="40" height="40" as="geometry" />
        </mxCell>
        <mxCell id="7xTzRpvflf75920WKzXN-53" value="2" style="ellipse;whiteSpace=wrap;html=1;aspect=fixed;fontSize=14;fontFamily=Times New Roman;" vertex="1" parent="1">
          <mxGeometry x="321" y="900" width="40" height="40" as="geometry" />
        </mxCell>
        <mxCell id="7xTzRpvflf75920WKzXN-56" style="edgeStyle=orthogonalEdgeStyle;rounded=0;orthogonalLoop=1;jettySize=auto;html=1;entryX=0.12;entryY=0.32;entryDx=0;entryDy=0;entryPerimeter=0;" edge="1" parent="1">
          <mxGeometry relative="1" as="geometry">
            <mxPoint x="361" y="919.52" as="sourcePoint" />
            <mxPoint x="414" y="919.52" as="targetPoint" />
          </mxGeometry>
        </mxCell>
        <mxCell id="7xTzRpvflf75920WKzXN-57" value="-" style="text;html=1;align=center;verticalAlign=middle;resizable=0;points=[];autosize=1;strokeColor=none;fillColor=none;" vertex="1" parent="1">
          <mxGeometry x="700" y="870" width="30" height="30" as="geometry" />
        </mxCell>
        <mxCell id="7xTzRpvflf75920WKzXN-58" value="&lt;font style=&quot;font-size: 14px;&quot; face=&quot;Times New Roman&quot;&gt;1&lt;/font&gt;" style="text;html=1;align=center;verticalAlign=middle;resizable=0;points=[];autosize=1;strokeColor=none;fillColor=none;" vertex="1" parent="1">
          <mxGeometry x="354" y="20" width="30" height="30" as="geometry" />
        </mxCell>
        <mxCell id="7xTzRpvflf75920WKzXN-59" value="&lt;font style=&quot;font-size: 14px;&quot;&gt;2&lt;/font&gt;" style="text;html=1;align=center;verticalAlign=middle;resizable=0;points=[];autosize=1;strokeColor=none;fillColor=none;fontFamily=Times New Roman;fontSize=14;" vertex="1" parent="1">
          <mxGeometry x="354" y="130" width="30" height="30" as="geometry" />
        </mxCell>
        <mxCell id="7xTzRpvflf75920WKzXN-60" value="3" style="text;html=1;align=center;verticalAlign=middle;resizable=0;points=[];autosize=1;strokeColor=none;fillColor=none;fontSize=14;fontFamily=Times New Roman;" vertex="1" parent="1">
          <mxGeometry x="354" y="230" width="30" height="30" as="geometry" />
        </mxCell>
        <mxCell id="7xTzRpvflf75920WKzXN-61" value="4" style="text;html=1;align=center;verticalAlign=middle;resizable=0;points=[];autosize=1;strokeColor=none;fillColor=none;fontSize=14;fontFamily=Times New Roman;" vertex="1" parent="1">
          <mxGeometry x="354" y="330" width="30" height="30" as="geometry" />
        </mxCell>
        <mxCell id="7xTzRpvflf75920WKzXN-62" value="5" style="text;html=1;align=center;verticalAlign=middle;resizable=0;points=[];autosize=1;strokeColor=none;fillColor=none;fontFamily=Times New Roman;fontSize=14;" vertex="1" parent="1">
          <mxGeometry x="354" y="430" width="30" height="30" as="geometry" />
        </mxCell>
        <mxCell id="7xTzRpvflf75920WKzXN-63" value="6" style="text;html=1;align=center;verticalAlign=middle;resizable=0;points=[];autosize=1;strokeColor=none;fillColor=none;fontFamily=Times New Roman;fontSize=14;" vertex="1" parent="1">
          <mxGeometry x="354" y="530" width="30" height="30" as="geometry" />
        </mxCell>
        <mxCell id="7xTzRpvflf75920WKzXN-64" value="7" style="text;html=1;align=center;verticalAlign=middle;resizable=0;points=[];autosize=1;strokeColor=none;fillColor=none;fontFamily=Times New Roman;fontSize=14;" vertex="1" parent="1">
          <mxGeometry x="354" y="658" width="30" height="30" as="geometry" />
        </mxCell>
        <mxCell id="7xTzRpvflf75920WKzXN-65" value="8" style="text;html=1;align=center;verticalAlign=middle;resizable=0;points=[];autosize=1;strokeColor=none;fillColor=none;fontSize=14;fontFamily=Times New Roman;" vertex="1" parent="1">
          <mxGeometry x="354" y="780" width="30" height="30" as="geometry" />
        </mxCell>
        <mxCell id="7xTzRpvflf75920WKzXN-67" value="9" style="text;html=1;align=center;verticalAlign=middle;resizable=0;points=[];autosize=1;strokeColor=none;fillColor=none;fontSize=14;fontFamily=Times New Roman;" vertex="1" parent="1">
          <mxGeometry x="580" y="710" width="30" height="30" as="geometry" />
        </mxCell>
        <mxCell id="7xTzRpvflf75920WKzXN-68" value="10" style="text;html=1;align=center;verticalAlign=middle;resizable=0;points=[];autosize=1;strokeColor=none;fillColor=none;fontSize=14;fontFamily=Times New Roman;" vertex="1" parent="1">
          <mxGeometry x="575" y="840" width="40" height="30" as="geometry" />
        </mxCell>
      </root>
    </mxGraphModel>
  </diagram>
</mxfile>
